<mxfile host="app.diagrams.net" agent="Mozilla/5.0 (X11; Linux x86_64; rv:135.0) Gecko/20100101 Firefox/135.0" version="26.0.16">
  <diagram name="Page-1" id="ofv9yUd-OpNr_JexyM5j">
    <mxGraphModel dx="637" dy="375" grid="1" gridSize="10" guides="1" tooltips="1" connect="1" arrows="1" fold="1" page="1" pageScale="1" pageWidth="850" pageHeight="1100" math="0" shadow="0">
      <root>
        <mxCell id="0" />
        <mxCell id="1" parent="0" />
        <mxCell id="nDMgWKc6g9BaQMn8D7-_-11" style="edgeStyle=orthogonalEdgeStyle;rounded=0;orthogonalLoop=1;jettySize=auto;html=1;exitX=0.5;exitY=1;exitDx=0;exitDy=0;entryX=0.5;entryY=0;entryDx=0;entryDy=0;" parent="1" source="nDMgWKc6g9BaQMn8D7-_-2" target="nDMgWKc6g9BaQMn8D7-_-4" edge="1">
          <mxGeometry relative="1" as="geometry" />
        </mxCell>
        <mxCell id="nDMgWKc6g9BaQMn8D7-_-12" style="rounded=0;orthogonalLoop=1;jettySize=auto;html=1;exitX=0;exitY=1;exitDx=0;exitDy=0;entryX=1;entryY=0;entryDx=0;entryDy=0;" parent="1" source="nDMgWKc6g9BaQMn8D7-_-2" target="nDMgWKc6g9BaQMn8D7-_-5" edge="1">
          <mxGeometry relative="1" as="geometry" />
        </mxCell>
        <mxCell id="nDMgWKc6g9BaQMn8D7-_-13" style="rounded=0;orthogonalLoop=1;jettySize=auto;html=1;exitX=1;exitY=1;exitDx=0;exitDy=0;entryX=0;entryY=0;entryDx=0;entryDy=0;" parent="1" source="nDMgWKc6g9BaQMn8D7-_-2" target="nDMgWKc6g9BaQMn8D7-_-3" edge="1">
          <mxGeometry relative="1" as="geometry" />
        </mxCell>
        <mxCell id="nDMgWKc6g9BaQMn8D7-_-2" value="" style="ellipse;whiteSpace=wrap;html=1;aspect=fixed;fillColor=#000000;" parent="1" vertex="1">
          <mxGeometry x="360" y="160" width="30" height="30" as="geometry" />
        </mxCell>
        <mxCell id="nDMgWKc6g9BaQMn8D7-_-16" style="rounded=0;orthogonalLoop=1;jettySize=auto;html=1;exitX=0.5;exitY=1;exitDx=0;exitDy=0;entryX=0.5;entryY=0;entryDx=0;entryDy=0;" parent="1" source="nDMgWKc6g9BaQMn8D7-_-3" target="nDMgWKc6g9BaQMn8D7-_-10" edge="1">
          <mxGeometry relative="1" as="geometry" />
        </mxCell>
        <mxCell id="nDMgWKc6g9BaQMn8D7-_-17" style="rounded=0;orthogonalLoop=1;jettySize=auto;html=1;exitX=0.5;exitY=1;exitDx=0;exitDy=0;entryX=0.5;entryY=0;entryDx=0;entryDy=0;" parent="1" source="nDMgWKc6g9BaQMn8D7-_-3" target="nDMgWKc6g9BaQMn8D7-_-8" edge="1">
          <mxGeometry relative="1" as="geometry" />
        </mxCell>
        <mxCell id="nDMgWKc6g9BaQMn8D7-_-3" value="&lt;div style=&quot;line-height: 100%;&quot;&gt;8.&lt;/div&gt;" style="ellipse;whiteSpace=wrap;html=1;aspect=fixed;" parent="1" vertex="1">
          <mxGeometry x="420" y="230" width="30" height="30" as="geometry" />
        </mxCell>
        <mxCell id="nDMgWKc6g9BaQMn8D7-_-18" style="rounded=0;orthogonalLoop=1;jettySize=auto;html=1;exitX=0.5;exitY=1;exitDx=0;exitDy=0;entryX=0.5;entryY=0;entryDx=0;entryDy=0;" parent="1" source="nDMgWKc6g9BaQMn8D7-_-4" target="nDMgWKc6g9BaQMn8D7-_-9" edge="1">
          <mxGeometry relative="1" as="geometry" />
        </mxCell>
        <mxCell id="nDMgWKc6g9BaQMn8D7-_-4" value="&lt;div style=&quot;line-height: 100%;&quot;&gt;5.&lt;/div&gt;" style="ellipse;whiteSpace=wrap;html=1;aspect=fixed;" parent="1" vertex="1">
          <mxGeometry x="360" y="230" width="30" height="30" as="geometry" />
        </mxCell>
        <mxCell id="nDMgWKc6g9BaQMn8D7-_-19" style="rounded=0;orthogonalLoop=1;jettySize=auto;html=1;exitX=0.5;exitY=1;exitDx=0;exitDy=0;entryX=0.5;entryY=0;entryDx=0;entryDy=0;" parent="1" source="nDMgWKc6g9BaQMn8D7-_-5" target="nDMgWKc6g9BaQMn8D7-_-6" edge="1">
          <mxGeometry relative="1" as="geometry" />
        </mxCell>
        <mxCell id="nDMgWKc6g9BaQMn8D7-_-20" style="rounded=0;orthogonalLoop=1;jettySize=auto;html=1;exitX=0.5;exitY=1;exitDx=0;exitDy=0;entryX=0.5;entryY=0;entryDx=0;entryDy=0;" parent="1" source="nDMgWKc6g9BaQMn8D7-_-5" target="nDMgWKc6g9BaQMn8D7-_-7" edge="1">
          <mxGeometry relative="1" as="geometry" />
        </mxCell>
        <mxCell id="nDMgWKc6g9BaQMn8D7-_-5" value="&lt;div style=&quot;line-height: 100%;&quot;&gt;3.&lt;/div&gt;" style="ellipse;whiteSpace=wrap;html=1;aspect=fixed;" parent="1" vertex="1">
          <mxGeometry x="300" y="230" width="30" height="30" as="geometry" />
        </mxCell>
        <mxCell id="nDMgWKc6g9BaQMn8D7-_-6" value="&lt;div style=&quot;line-height: 100%;&quot;&gt;2.&lt;/div&gt;" style="ellipse;whiteSpace=wrap;html=1;aspect=fixed;" parent="1" vertex="1">
          <mxGeometry x="320" y="300" width="30" height="30" as="geometry" />
        </mxCell>
        <mxCell id="nDMgWKc6g9BaQMn8D7-_-7" value="&lt;div style=&quot;line-height: 100%;&quot;&gt;1.&lt;/div&gt;" style="ellipse;whiteSpace=wrap;html=1;aspect=fixed;" parent="1" vertex="1">
          <mxGeometry x="270" y="300" width="30" height="30" as="geometry" />
        </mxCell>
        <mxCell id="nDMgWKc6g9BaQMn8D7-_-8" value="&lt;div style=&quot;line-height: 100%;&quot;&gt;7.&lt;/div&gt;" style="ellipse;whiteSpace=wrap;html=1;aspect=fixed;" parent="1" vertex="1">
          <mxGeometry x="450" y="300" width="30" height="30" as="geometry" />
        </mxCell>
        <mxCell id="nDMgWKc6g9BaQMn8D7-_-9" value="&lt;div style=&quot;line-height: 100%;&quot;&gt;4.&lt;/div&gt;" style="ellipse;whiteSpace=wrap;html=1;aspect=fixed;" parent="1" vertex="1">
          <mxGeometry x="360" y="300" width="30" height="30" as="geometry" />
        </mxCell>
        <mxCell id="nDMgWKc6g9BaQMn8D7-_-10" value="&lt;div style=&quot;line-height: 100%;&quot;&gt;6.&lt;/div&gt;" style="ellipse;whiteSpace=wrap;html=1;aspect=fixed;" parent="1" vertex="1">
          <mxGeometry x="400" y="300" width="30" height="30" as="geometry" />
        </mxCell>
        <mxCell id="nDMgWKc6g9BaQMn8D7-_-24" value="" style="endArrow=classic;html=1;rounded=0;edgeStyle=orthogonalEdgeStyle;curved=1;dashed=1;strokeColor=#FF0000;" parent="1" edge="1">
          <mxGeometry width="50" height="50" relative="1" as="geometry">
            <mxPoint x="355" y="170" as="sourcePoint" />
            <mxPoint x="305" y="230" as="targetPoint" />
          </mxGeometry>
        </mxCell>
        <mxCell id="nDMgWKc6g9BaQMn8D7-_-25" value="&lt;div style=&quot;line-height: 100%;&quot;&gt;Root Node&lt;/div&gt;" style="text;html=1;align=center;verticalAlign=middle;whiteSpace=wrap;rounded=0;" parent="1" vertex="1">
          <mxGeometry x="345" y="130" width="60" height="30" as="geometry" />
        </mxCell>
        <mxCell id="nDMgWKc6g9BaQMn8D7-_-27" value="" style="endArrow=classic;html=1;rounded=0;edgeStyle=orthogonalEdgeStyle;curved=1;dashed=1;strokeColor=#FF0000;" parent="1" edge="1">
          <mxGeometry width="50" height="50" relative="1" as="geometry">
            <mxPoint x="296" y="241" as="sourcePoint" />
            <mxPoint x="272" y="301" as="targetPoint" />
          </mxGeometry>
        </mxCell>
        <mxCell id="nDMgWKc6g9BaQMn8D7-_-28" value="" style="endArrow=classic;html=1;rounded=0;edgeStyle=orthogonalEdgeStyle;curved=1;dashed=1;strokeColor=#FF0000;" parent="1" edge="1">
          <mxGeometry width="50" height="50" relative="1" as="geometry">
            <mxPoint x="280" y="334" as="sourcePoint" />
            <mxPoint x="337" y="334" as="targetPoint" />
            <Array as="points">
              <mxPoint x="280" y="359" />
              <mxPoint x="337" y="359" />
            </Array>
          </mxGeometry>
        </mxCell>
        <mxCell id="nDMgWKc6g9BaQMn8D7-_-29" value="pass" style="text;html=1;align=center;verticalAlign=middle;whiteSpace=wrap;rounded=0;fontColor=#FF0000;" parent="1" vertex="1">
          <mxGeometry x="270" y="220" width="30" height="20" as="geometry" />
        </mxCell>
        <mxCell id="FjunX4sAkYwtgy29rPVs-1" value="" style="endArrow=classic;html=1;rounded=0;dashed=1;strokeColor=#FF0000;edgeStyle=orthogonalEdgeStyle;elbow=vertical;curved=1;" edge="1" parent="1">
          <mxGeometry width="50" height="50" relative="1" as="geometry">
            <mxPoint x="347.99" y="304" as="sourcePoint" />
            <mxPoint x="332.99" y="244" as="targetPoint" />
            <Array as="points">
              <mxPoint x="347.99" y="304" />
              <mxPoint x="356.99" y="304" />
              <mxPoint x="356.99" y="244" />
            </Array>
          </mxGeometry>
        </mxCell>
      </root>
    </mxGraphModel>
  </diagram>
</mxfile>
